<svg xmlns="http://www.w3.org/2000/svg" viewBox="0 0 950.29 538"><defs><style>.cls-1{fill:#fff;stroke:#231f20;stroke-miterlimit:10;}.cls-2{fill:#e52625;}.cls-3{fill:#161616;}</style></defs><g id="Layer_2" data-name="Layer 2"><g id="Layer_1-2" data-name="Layer 1"><rect class="cls-1" x="144.68" y="64.5" width="656.61" height="225.91"/><path class="cls-2" d="M473,0C211.76,0,0,81.29,0,181.57S211.76,363.13,473,363.13s473-81.29,473-181.56S734.21,0,473,0ZM284.21,113.67c-26.19-.14-52.39.12-78.57-.25-6.34-.09-7.91,1.75-7.65,7.4.45,10.05.24,20.14.09,30.2-.06,3.78.62,5.45,5.48,5.39,24.41-.29,48.83.05,73.25-.17,5.26-.05,7,1.4,6.79,6.38-.37,8.8-.36,17.63,0,26.43.2,4.88-1.78,5.92-6.58,5.88-23.75-.2-47.51.12-71.26-.2-5.94-.09-7.94,1.06-7.84,7.09.4,23.49,0,47,.29,70.48.05,4.73-1.2,6-6.28,5.89q-20.3-.58-40.62,0c-5,.14-5.75-1.48-5.73-5.67.17-31.89.09-63.78.09-95.66h-.06q0-46.26,0-92.52c0-10.41.09-8.49,8.75-8.49q63.27.08,126.54,0c8.54,0,8.53-.08,8.54,8.2s-.1,16.37.16,24.54C289.72,112.46,288.26,113.69,284.21,113.67Zm187.56,131.4c-.31,9-.36,18,0,27.05.17,4.53-.91,6.09-6.14,6.06q-66.6-.31-133.2,0c-4.9,0-5.82-1.58-5.79-5.77.15-31.67.08-63.35.08-95h0c0-31.47.18-62.94-.16-94.4-.06-5.86,2.3-7,7.64-6.95,13.54.19,27.1.36,40.62-.07,6.07-.19,7.93,1.3,7.89,7.26-.27,49.5,0,99-.38,148.52,0,6.47,1.73,8.07,8.45,8,25.08-.39,50.17,0,75.25-.29C470.89,239.37,471.92,240.83,471.77,245.07Zm82.53,28.08c0,3.74-.92,5.1-5.17,5-14-.26-28-.3-41.94,0-4.78.1-5.87-1.33-5.84-5.64.18-31.88.1-63.75.1-95.62h-.05c0-31.66.11-63.33-.12-95,0-4.83,1-6.55,6.49-6.39,13.52.39,27.07.3,40.6,0,4.85-.11,6,1.5,6,5.78Q554.17,177.22,554.3,273.15ZM717.72,184c19.84,29,39.28,58.24,58.81,87.43,1.25,1.87,2.77,3.72,2.77,6.61-19.84,0-39.55-.05-59.25.05-3.57,0-4.32-2.42-5.51-4.6q-16.9-31-33.8-62c-.67-1.24-.74-3-3.22-3.42-7.18,14.64-14.44,29.4-21.67,44.18-3.62,7.42-7.28,14.82-10.74,22.31-1.1,2.38-2.36,3.55-5.37,3.53-18.65-.11-37.3,0-56,0-1.21,0-3,.59-3.54-.81-.67-1.65.59-2.95,1.61-4.38,21.68-30.37,43.2-60.85,65-91.17,2.44-3.4,2.11-5.59-.12-8.86Q616.74,129,587.14,85c-1.29-1.9-2.33-3.94-3.34-5.66,1-2,2.53-1.49,3.73-1.49,17.33,0,34.65.05,52-.08,3.52,0,5.48.94,7.21,4.07,11.31,20.43,22.91,40.71,34.39,61.05.52.92.77,2,2.54,2.39C691.74,128.64,700,112,708,95.19c7.7-16.28,7.54-16.35,26.13-16.35,13.77,0,27.54,0,41.31.07,1.67,0,3.91-.85,4.9.82s-1.06,3-2,4.34c-20.15,29.11-40.22,58.26-60.65,87.2C714.36,176,714.46,179.26,717.72,184Z"/><path class="cls-3" d="M127.22,419H81.57V536H44.91V419H.1V392.29H127.22Z"/><path class="cls-3" d="M237,475H179.34v34.35h68.1V536H142.68V392.29h105V419H179.34v30.31H237Z"/><path class="cls-3" d="M299,509.37h63.82V536H262.38V392.29H299Z"/><path class="cls-3" d="M472.64,475H415v34.35h68.1V536H378.32V392.29h105V419H415v30.31h57.66Z"/><path class="cls-3" d="M621.06,487.36a50.48,50.48,0,0,1-8.56,26.5q-7.85,11.5-22,17.82T558.18,538q-30,0-47.21-18.46t-17.23-52.12v-7.11q0-21.12,7.78-37a56.8,56.8,0,0,1,22.4-24.48q14.63-8.64,33.84-8.64,27.69,0,44.5,13.77t19.12,38H584.82q-.42-13.14-7-18.86t-20.06-5.72q-13.68,0-20,9.67T531,457.94v10.17q0,23,6.11,32.87t21,9.87q12.65,0,19.33-5.63t7.1-17.86Z"/><path class="cls-3" d="M767.19,467.12q0,21-8.25,37.22a58.91,58.91,0,0,1-23.45,24.92Q720.28,538,700.86,538t-34.47-8.44a59,59,0,0,1-23.45-24.14q-8.4-15.69-8.82-36V461.3q0-21.14,8.2-37.27a58.73,58.73,0,0,1,23.5-24.93q15.3-8.78,34.83-8.78,19.32,0,34.47,8.69a59.78,59.78,0,0,1,23.55,24.72q8.42,16,8.52,36.78Zm-37.29-6q0-21.42-7.57-32.53t-21.68-11.11q-27.57,0-29.14,39.1l-.1,10.56q0,21.12,7.41,32.48t22,11.35q13.89,0,21.41-11.16t7.63-32.08Z"/><path class="cls-3" d="M834.24,392.29l34,100,33.84-100h48.26V536H913.52V502.46l3.55-68.71L880.31,536H856.07L819.2,433.66l3.56,68.8V536H786.09V392.29Z"/></g></g></svg>